<svg width="30" height="30" viewBox="0 0 30 30" fill="none" xmlns="http://www.w3.org/2000/svg">
<circle cx="14.784" cy="14.784" r="14.784" fill="#312244"/>
<path d="M14.7852 7.67188C12.9991 7.67188 11.5512 9.11978 11.5512 10.9059C11.5512 12.692 12.9991 14.1399 14.7852 14.1399C16.5712 14.1399 18.0191 12.692 18.0191 10.9059C18.0191 9.11978 16.5712 7.67188 14.7852 7.67188Z" fill="white"/>
<path d="M11.3356 15.8647C9.54947 15.8647 8.10156 17.3126 8.10156 19.0987V20.1234C8.10156 20.773 8.57233 21.3269 9.21343 21.4315C12.9035 22.034 16.6668 22.034 20.3569 21.4315C20.998 21.3269 21.4687 20.773 21.4687 20.1234V19.0987C21.4687 17.3126 20.0208 15.8647 18.2347 15.8647H17.9408C17.7817 15.8647 17.6236 15.8898 17.4723 15.9392L16.7259 16.1829C15.4648 16.5947 14.1055 16.5947 12.8444 16.1829L12.098 15.9392C11.9467 15.8898 11.7886 15.8647 11.6295 15.8647H11.3356Z" fill="white"/>
</svg>
