<svg width="437" height="96" viewBox="0 0 437 96" fill="none" xmlns="http://www.w3.org/2000/svg">
<g clip-path="url(#clip0_1_8044)">
<rect width="437" height="96" rx="48" fill="#F25A06"/>
<path d="M437.246 0H0V24.5993L5.38188 26.1942C140.277 66.1698 303.355 65.5676 437.246 24.5993V0Z" fill="white" fill-opacity="0.1"/>
<g clip-path="url(#clip1_1_8044)">
<path opacity="0.3" d="M85.9489 13.7233L99.1807 27.1627L117.959 25.4072L109.266 42.1443L116.738 59.4608L98.1341 56.3656L83.9742 68.8233L81.1689 50.1732L64.9453 40.5559L81.8157 32.1247L85.9489 13.7233Z" fill="white"/>
<path opacity="0.3" d="M167.812 61.8715L177.04 78.3197L195.618 81.5689L182.826 95.4277L185.477 114.1L168.344 106.217L151.404 114.509L153.607 95.7778L140.487 82.2294L158.981 78.5361L167.812 61.8715Z" fill="white"/>
<path opacity="0.3" d="M381.226 61.8715L390.454 78.3197L409.032 81.5689L396.24 95.4277L398.891 114.1L381.758 106.217L364.818 114.509L367.021 95.7778L353.901 82.2294L372.395 78.5361L381.226 61.8715Z" fill="white"/>
<path opacity="0.3" d="M280.828 43.7952L284.146 62.3611L300.628 71.5283L283.996 80.4205L280.37 98.9287L266.774 85.8585L248.051 88.13L256.28 71.16L248.334 54.0557L267.017 56.6378L280.828 43.7952Z" fill="white"/>
<path opacity="0.3" d="M34.7267 61.0999L38.0441 79.6658L54.5262 88.8329L37.8942 97.7252L34.2689 116.233L20.6723 103.163L1.94972 105.435L10.1786 88.4647L2.23266 71.3604L20.915 73.9425L34.7267 61.0999Z" fill="white"/>
<path opacity="0.3" d="M331.032 -6.11919L341.996 9.22617L360.817 10.4326L349.611 25.6022L354.28 43.8751L336.39 37.9051L320.454 47.9919L320.604 29.1326L306.086 17.0938L324.068 11.4081L331.032 -6.11919Z" fill="white"/>
<path opacity="0.3" d="M-11.2025 -13.8067L-0.238266 1.53867L18.583 2.74506L7.37684 17.9147L12.0456 36.1876L-5.84448 30.2176L-21.7803 40.3044L-21.6308 21.4451L-36.1484 9.40627L-18.166 3.7206L-11.2025 -13.8067Z" fill="white"/>
<path opacity="0.3" d="M434.852 5.41987L445.816 20.7652L464.638 21.9716L453.432 37.1412L458.1 55.4141L440.21 49.4441L424.274 59.531L424.424 40.6717L409.906 28.6328L427.889 22.9472L434.852 5.41987Z" fill="white"/>
<path opacity="0.3" d="M198.368 -6.11919L209.332 9.22617L228.153 10.4326L216.947 25.6022L221.616 43.8751L203.726 37.9051L187.79 47.9919L187.939 29.1326L173.422 17.0938L191.404 11.4081L198.368 -6.11919Z" fill="white"/>
</g>
</g>
<rect x="2.88395" y="2.88395" width="431.232" height="90.2321" rx="45.1161" stroke="url(#paint0_linear_1_8044)" stroke-width="5.76789"/>
<defs>
<linearGradient id="paint0_linear_1_8044" x1="218.5" y1="0" x2="218.5" y2="96" gradientUnits="userSpaceOnUse">
<stop stop-color="white" stop-opacity="0.2"/>
<stop offset="0.491666" stop-color="#828282" stop-opacity="0.298333"/>
<stop offset="1" stop-opacity="0.4"/>
</linearGradient>
<clipPath id="clip0_1_8044">
<rect width="437" height="96" rx="48" fill="white"/>
</clipPath>
<clipPath id="clip1_1_8044">
<rect width="769.053" height="96.1316" fill="white" transform="translate(-168.789)"/>
</clipPath>
</defs>
</svg>
