<svg width="856" height="367" viewBox="0 0 856 367" fill="none" xmlns="http://www.w3.org/2000/svg">
<path d="M724.061 40.9586C697.984 40.9772 672.497 48.7245 650.82 63.2218C629.143 77.719 612.25 98.3158 602.274 122.41C589.527 86.3438 565.833 55.16 534.502 33.2151C503.17 11.2702 465.766 -0.339602 427.516 0.00756487C389.265 0.354732 352.078 12.6416 321.15 35.1515C290.222 57.6615 267.098 89.2701 255.008 125.562C244.118 97.1813 223.759 73.434 197.374 58.338C170.989 43.2419 140.2 37.724 110.215 42.7178C80.23 47.7116 52.8907 62.9106 32.8229 85.743C12.7551 108.575 1.19093 137.639 0.0870408 168.017C-1.01685 198.395 8.40731 228.222 26.765 252.45C45.1227 276.679 71.2866 293.822 100.83 300.979C130.373 308.136 161.482 304.868 188.893 291.726C216.304 278.585 238.333 256.378 251.254 228.863C261.323 268.088 284.073 302.886 315.967 327.841C347.86 352.797 387.108 366.511 427.603 366.85C468.098 367.19 507.57 354.135 539.878 329.717C572.185 305.3 595.516 270.889 606.24 231.838C616.774 252.81 632.714 270.59 652.415 283.343C672.117 296.095 694.865 303.358 718.311 304.381C741.757 305.405 765.052 300.151 785.789 289.163C806.526 278.175 823.955 261.851 836.275 241.876C848.595 221.902 855.361 199.001 855.872 175.538C856.384 152.075 850.624 128.9 839.187 108.407C827.75 87.9145 811.05 70.8459 790.811 58.9639C770.573 47.0819 747.53 40.8173 724.061 40.8169V40.9586Z" fill="#48443E"/>
</svg>
